<?xml version="1.0" standalone="no"?>
<!DOCTYPE svg PUBLIC "-//W3C//DTD SVG 20010904//EN"
 "http://www.w3.org/TR/2001/REC-SVG-20010904/DTD/svg10.dtd">
<svg version="1.0" xmlns="http://www.w3.org/2000/svg"
 width="300.000000pt" height="289.000000pt" viewBox="0 0 300.000000 289.000000"
 preserveAspectRatio="xMidYMid meet">
<metadata>
Created by potrace 1.10, written by Peter Selinger 2001-2011
</metadata>
<g transform="translate(0.000000,289.000000) scale(0.100000,-0.100000)"
fill="#000000" stroke="none">
<path d="M1270 2696 c-168 -39 -363 -124 -477 -207 -158 -116 -311 -306 -387
-484 -200 -463 -108 -961 242 -1318 234 -238 515 -357 842 -357 207 0 342 32
538 127 218 106 419 306 530 528 83 167 123 341 124 539 1 403 -193 765 -533
992 -114 76 -191 112 -330 155 -99 30 -113 32 -299 35 -134 2 -212 -1 -250
-10z m328 -67 c319 -34 585 -183 777 -434 96 -126 161 -265 202 -436 25 -104
25 -374 0 -477 -48 -201 -140 -371 -277 -516 -179 -189 -387 -300 -643 -341
-572 -93 -1120 289 -1249 869 -26 120 -28 326 -3 446 98 479 484 833 973 890
98 11 113 11 220 -1z"/>
<path d="M1340 2585 c-458 -72 -820 -422 -900 -870 -19 -108 -9 -369 19 -470
28 -104 116 -283 179 -365 243 -320 643 -481 1027 -414 323 56 590 241 754
523 145 248 181 578 94 855 -106 337 -372 601 -711 706 -80 25 -245 50 -322
49 -30 -1 -93 -7 -140 -14z m415 -49 c378 -98 669 -402 759 -793 l14 -63 -142
0 -143 0 -17 61 c-68 245 -272 447 -531 525 -94 29 -316 26 -415 -5 -125 -39
-221 -94 -314 -181 -93 -87 -181 -234 -208 -348 l-13 -52 -143 0 -143 0 7 38
c12 68 56 196 91 267 103 205 270 373 468 472 109 55 195 81 345 107 14 3 84
3 155 1 99 -2 154 -9 230 -29z m-115 -347 c155 -33 321 -144 410 -274 208
-303 138 -731 -154 -939 -132 -95 -247 -131 -411 -130 -109 0 -138 6 -245 46
-276 105 -464 422 -422 713 15 101 46 192 93 272 46 77 160 189 239 236 144
83 326 112 490 76z m-861 -593 c-6 -51 -6 -103 0 -149 6 -39 8 -73 6 -76 -3
-2 -14 4 -26 15 -20 18 -74 23 -282 24 -4 0 -6 51 -5 113 l3 112 130 5 c101 4
135 9 154 22 14 10 26 16 27 15 2 -1 -2 -38 -7 -81z m1601 44 c107 0 129 -3
134 -16 12 -31 7 -204 -7 -209 -6 -3 -67 -6 -134 -8 -107 -2 -125 -5 -151 -24
l-29 -21 10 51 c5 29 7 100 4 160 l-6 107 26 -20 c23 -18 40 -20 153 -20z
m-1619 -338 c32 -113 96 -220 189 -313 151 -153 297 -218 506 -227 152 -6 243
12 369 73 198 96 341 264 401 470 l18 60 140 -2 c159 -3 146 8 121 -95 -93
-374 -390 -667 -775 -764 -111 -28 -384 -26 -492 4 -323 88 -586 316 -707 614
-29 71 -71 212 -71 240 0 2 64 2 142 1 l142 -1 17 -60z"/>
<path d="M1358 2479 c-29 -16 -22 -49 12 -60 40 -14 38 -30 -2 -22 -30 6 -32
5 -19 -11 22 -26 75 -18 79 12 3 18 -3 26 -27 35 -37 14 -41 30 -6 21 18 -4
25 -2 25 9 0 24 -33 33 -62 16z"/>
<path d="M1440 2480 c0 -5 7 -10 15 -10 11 0 15 -12 15 -50 0 -38 4 -50 15
-50 11 0 15 12 15 50 0 38 4 50 15 50 8 0 15 5 15 10 0 6 -20 10 -45 10 -25 0
-45 -4 -45 -10z"/>
<path d="M1557 2434 c-30 -60 -28 -76 3 -56 26 16 40 15 54 -2 6 -7 25 -16 43
-19 29 -6 32 -4 36 21 4 27 4 27 12 -5 4 -19 14 -33 22 -33 11 0 14 7 10 21
-3 13 2 28 14 40 26 26 11 55 -32 64 -37 8 -44 0 -53 -57 -8 -48 -22 -42 -31
15 -14 84 -41 88 -78 11z"/>
<path d="M1252 2461 c-8 -5 -16 -35 -19 -70 -5 -53 -4 -61 10 -55 8 3 18 12
21 20 6 16 43 19 48 4 2 -5 9 -6 16 -1 11 7 7 19 -20 59 -35 55 -36 56 -56 43z"/>
<path d="M1773 2388 l-20 -53 31 -13 c17 -7 40 -11 52 -8 25 7 47 51 39 77 -6
18 -52 49 -73 49 -5 0 -18 -24 -29 -52z m70 -2 c8 -21 -17 -50 -36 -43 -14 5
-15 11 -5 32 12 27 33 33 41 11z"/>
<path d="M1125 2418 c-11 -6 -21 -12 -23 -14 -7 -5 33 -104 43 -104 15 0 75
39 75 49 0 5 -6 14 -14 21 -8 6 -16 21 -18 33 -3 25 -33 32 -63 15z"/>
<path d="M1380 2160 c-188 -35 -366 -164 -453 -327 -188 -353 -11 -801 364
-924 64 -21 92 -24 209 -23 120 0 143 3 202 26 206 78 352 235 413 443 22 74
25 237 6 315 -30 120 -86 220 -178 313 -115 116 -251 175 -418 182 -55 2 -120
0 -145 -5z m183 -19 c30 -1 37 -5 37 -20 0 -15 -10 -22 -42 -29 -24 -5 -42
-13 -42 -18 1 -5 5 -30 8 -56 6 -38 4 -48 -7 -48 -9 0 -17 14 -20 38 -4 20 -9
52 -13 70 -6 28 -4 32 15 32 11 0 21 4 21 9 0 4 -11 7 -25 6 -14 -2 -25 2 -25
9 0 7 12 11 28 10 15 -1 44 -3 65 -3z m-183 -38 c-58 -51 -57 -51 -136 -63
-38 -6 -80 -13 -94 -16 -25 -5 -25 -5 -5 11 43 36 160 87 225 98 52 9 53 6 10
-30z m89 -32 c15 -97 17 -93 -36 -89 -43 3 -47 5 -55 35 -7 28 -4 39 24 77 18
25 38 45 44 45 6 1 16 -30 23 -68z m246 31 c69 -28 191 -102 167 -102 -6 0
-12 -10 -12 -21 0 -18 4 -21 30 -16 23 5 33 1 50 -20 11 -14 20 -32 20 -39 0
-8 6 -14 13 -14 17 0 71 -92 98 -170 34 -99 37 -269 5 -372 -44 -144 -130
-259 -256 -343 -68 -45 -87 -54 -75 -35 8 13 7 13 -49 -6 -46 -16 -94 -13
-190 13 -27 8 -228 190 -289 262 -29 34 -46 37 -29 4 11 -20 123 -131 192
-190 25 -21 49 -44 53 -51 16 -24 83 -50 150 -57 37 -4 67 -11 67 -16 0 -10
-84 -23 -110 -16 -11 3 -20 0 -20 -5 0 -17 -143 0 -229 27 -74 24 -171 79
-217 123 -26 25 -22 65 10 102 20 23 29 46 70 191 19 65 19 69 6 69 -14 0 -36
-48 -55 -120 -9 -36 -27 -85 -41 -109 -13 -24 -24 -55 -24 -69 l0 -25 -26 24
c-14 13 -43 53 -64 89 -96 163 -112 365 -43 539 27 68 86 163 120 194 20 17
20 17 26 -24 3 -23 14 -50 24 -60 19 -18 21 -18 155 7 39 7 51 -23 53 -136 1
-97 -8 -167 -28 -207 -5 -13 -8 -26 -5 -29 4 -3 9 3 12 14 6 16 16 20 56 20
28 1 50 -3 50 -7 0 -5 -11 -6 -25 -3 -15 2 -25 0 -25 -7 0 -6 16 -11 35 -11
19 0 35 -5 35 -11 0 -5 4 -8 9 -4 5 3 12 1 16 -5 9 -15 -58 -13 -74 3 -11 10
-13 8 -7 -13 3 -14 6 -35 6 -47 0 -18 6 -23 25 -23 14 0 25 -6 25 -12 0 -9 3
-8 10 2 5 8 12 12 15 8 10 -10 -5 -49 -16 -43 -5 4 -9 -1 -9 -9 0 -10 -9 -16
-22 -16 -21 0 -21 0 -3 -14 11 -8 24 -12 31 -9 38 14 47 156 13 212 -18 29
-24 33 -53 28 -31 -5 -33 -3 -43 36 -13 47 -9 59 11 32 15 -21 46 -14 46 10 0
21 24 45 44 45 10 0 16 -9 16 -23 0 -12 7 -53 14 -91 8 -38 13 -73 10 -78 -7
-10 6 -10 42 1 16 5 48 14 72 20 52 15 52 8 11 232 -17 94 -28 173 -26 176 3
2 23 7 45 10 l40 5 7 -46 c5 -31 12 -46 22 -46 12 0 13 -3 4 -14 -9 -11 -7
-18 13 -34 24 -18 25 -23 19 -89 -7 -84 3 -157 23 -178 9 -8 11 -15 6 -15 -6
0 -23 -13 -39 -30 -27 -29 -30 -30 -116 -28 -68 1 -91 -2 -98 -13 -8 -12 -10
-12 -18 1 -6 8 -13 12 -16 8 -3 -3 1 -13 11 -22 13 -14 14 -21 4 -45 -19 -46
-10 -75 23 -79 23 -3 28 -8 25 -25 -4 -29 -33 -25 -111 15 l-59 29 7 41 c5 29
4 39 -4 34 -6 -4 -11 -16 -11 -26 0 -10 -5 -22 -10 -25 -7 -4 -8 7 -4 32 5 34
3 39 -15 40 -12 1 -21 -4 -21 -13 0 -8 -4 -14 -9 -14 -11 0 -21 35 -21 73 0
15 -3 27 -7 27 -14 -1 -52 -25 -55 -35 -2 -5 -6 -9 -10 -8 -4 2 -5 -4 -2 -12
4 -8 12 -15 18 -15 7 0 19 -11 26 -25 8 -15 22 -25 36 -25 14 0 34 -14 53 -39
36 -45 128 -94 180 -95 l36 -1 0 77 c0 54 -3 74 -11 67 -14 -12 -24 -1 -24 27
0 30 24 37 112 28 58 -5 78 -11 100 -31 20 -19 34 -24 55 -20 15 3 44 8 64 12
33 7 38 5 45 -16 4 -13 8 -33 9 -44 1 -11 5 -40 9 -65 6 -36 3 -53 -13 -85
-12 -21 -21 -50 -21 -63 0 -13 -16 -44 -36 -68 -44 -54 -32 -58 19 -6 25 25
45 61 61 110 14 40 21 70 16 67 -6 -4 -7 12 -4 39 8 55 -4 145 -16 126 -14
-22 -28 27 -22 78 3 31 1 42 -9 42 -9 0 -15 -15 -16 -42 -2 -23 -8 -47 -14
-52 -7 -8 -9 9 -5 56 5 57 3 66 -9 62 -8 -4 -15 -1 -15 6 0 9 -5 8 -18 -3 -36
-33 -44 -8 -46 142 -3 173 -1 175 116 186 46 4 82 13 89 21 15 19 2 18 -137
-2 -62 -10 -118 -14 -127 -11 -8 3 -18 22 -21 42 l-7 37 -61 -7 c-48 -6 -60
-5 -56 6 3 10 84 32 139 38 3 1 4 -19 3 -44 -3 -50 1 -56 34 -44 30 11 28 31
-5 53 -16 9 -20 15 -10 12 14 -5 17 -2 13 12 -5 16 4 21 71 34 l78 16 -55 -1
c-52 -1 -57 1 -95 40 -22 22 -50 46 -63 53 -22 11 -23 10 -13 -8 5 -10 17 -25
26 -32 9 -7 23 -26 30 -41 17 -31 13 -33 -87 -45 -57 -7 -57 -6 -63 22 -4 16
-9 37 -11 46 -4 13 5 19 38 25 36 8 43 13 41 31 -4 29 15 28 102 -6z m-347
-112 l9 -35 56 3 c44 2 57 0 57 -11 0 -9 -16 -16 -45 -20 -25 -4 -56 -9 -70
-13 -20 -5 -24 -3 -19 9 3 8 1 18 -5 21 -6 4 -8 20 -4 38 5 27 4 30 -11 25
-10 -4 -22 -7 -27 -7 -12 0 -12 -37 1 -45 5 -3 7 -12 3 -20 -3 -8 -1 -15 5
-15 6 0 13 6 15 13 4 7 6 8 6 1 2 -22 -26 -33 -133 -52 l-107 -20 -8 22 c-16
44 -20 95 -7 105 14 12 258 50 268 41 3 -3 11 -21 16 -40z m132 -79 c0 -6 -5
-13 -10 -16 -7 -4 -7 -12 0 -25 7 -13 6 -19 -5 -24 -8 -3 -12 -12 -9 -21 5
-11 -2 -17 -25 -21 -29 -6 -31 -9 -29 -47 3 -36 0 -41 -22 -48 -14 -4 -19 -7
-12 -8 6 -1 12 -6 12 -12 0 -6 -7 -8 -15 -5 -9 3 -18 -1 -21 -9 -4 -8 -13 -15
-21 -15 -8 0 -11 -4 -8 -10 3 -5 0 -10 -7 -10 -10 0 -12 12 -9 42 4 43 28 72
61 73 18 1 14 27 -6 38 -8 4 -14 15 -14 22 0 8 -9 15 -20 15 -15 0 -20 7 -20
29 0 28 2 29 78 44 98 19 102 19 102 8z m49 -57 c6 -37 10 -68 8 -71 -3 -2
-22 -5 -43 -6 -32 -2 -40 -7 -42 -25 -4 -29 26 -42 43 -18 10 13 15 14 21 5 5
-9 11 -7 21 6 9 14 13 15 13 4 0 -8 3 -31 6 -51 5 -25 3 -38 -5 -38 -6 0 -11
11 -11 25 0 15 -6 25 -14 25 -22 0 -30 -19 -15 -36 6 -8 9 -17 6 -21 -8 -8 11
-43 24 -43 5 0 13 10 18 22 6 17 10 8 18 -41 10 -61 9 -63 -14 -72 -13 -5 -33
-9 -44 -9 -11 0 -28 -4 -38 -9 -16 -9 -19 3 -39 130 -13 77 -20 144 -17 150 4
5 12 9 20 9 8 0 25 4 38 9 24 9 25 12 16 52 -6 23 -8 48 -5 56 11 28 23 10 35
-53z m181 -34 c0 -15 -6 -20 -27 -19 -16 0 -22 3 -15 6 6 2 12 11 12 19 0 8 7
14 15 14 8 0 15 -9 15 -20z m-380 -20 c0 -5 -4 -10 -10 -10 -5 0 -10 -9 -10
-21 0 -11 -4 -17 -10 -14 -5 3 -10 17 -10 31 0 17 5 24 20 24 11 0 20 -4 20
-10z m434 -367 c-7 -44 -18 -58 -34 -48 -7 4 -9 19 -4 38 8 41 12 47 30 47 12
0 13 -8 8 -37z m-354 3 c0 -15 -21 -26 -51 -26 -30 0 -22 28 9 33 15 2 30 5
35 6 4 0 7 -5 7 -13z"/>
<path d="M1411 2045 c-21 -37 -16 -47 9 -17 15 17 25 52 16 52 -2 0 -13 -16
-25 -35z"/>
<path d="M1616 2056 c6 -16 3 -18 -24 -14 -22 3 -32 0 -32 -8 0 -10 9 -12 30
-8 18 4 36 1 45 -6 21 -18 18 0 -5 30 -15 18 -18 20 -14 6z"/>
<path d="M1807 1985 c-8 -8 -17 -11 -20 -8 -12 11 -37 -6 -31 -21 4 -11 15
-14 37 -9 38 7 62 27 53 42 -10 15 -22 14 -39 -4z"/>
<path d="M1874 1935 c-4 -9 -2 -21 3 -26 14 -14 45 1 41 20 -4 22 -37 26 -44
6z"/>
<path d="M1811 1926 c-9 -10 -8 -16 3 -25 12 -10 17 -8 25 7 16 30 -6 44 -28
18z"/>
<path d="M1760 1905 c0 -17 5 -25 13 -22 6 2 12 12 12 22 0 10 -6 20 -12 23
-8 2 -13 -6 -13 -23z"/>
<path d="M1886 1731 c-3 -4 -20 -11 -37 -15 -42 -8 -59 -23 -59 -53 0 -26 27
-73 41 -73 5 0 0 13 -12 29 -11 16 -19 36 -17 46 3 18 9 22 68 48 36 15 36 14
53 -14 13 -23 23 -29 50 -29 30 0 36 -4 45 -32 l11 -33 -6 35 c-7 42 -19 52
-54 44 -23 -4 -29 0 -40 25 -14 30 -32 40 -43 22z"/>
<path d="M1852 1642 c-7 -5 -10 -16 -6 -25 8 -23 25 -22 18 1 -5 16 -5 16 8 0
11 -12 18 -14 33 -6 19 11 19 11 -1 -38 -3 -6 3 -21 13 -33 15 -18 22 -20 43
-12 l25 10 -26 0 c-30 1 -46 35 -28 58 16 19 1 34 -27 27 -17 -4 -24 -2 -22 6
4 16 -13 22 -30 12z"/>
<path d="M1285 1501 c-6 -11 1 -15 19 -12 5 1 1 -10 -8 -24 -19 -28 -13 -53 8
-36 7 6 16 8 19 4 4 -3 7 0 7 9 0 8 -3 18 -7 22 -4 4 -8 15 -8 23 0 19 -20 28
-30 14z"/>
<path d="M1762 1277 c-30 -31 -28 -61 3 -75 55 -25 115 0 115 47 0 51 -79 70
-118 28z m60 -3 c-29 -20 -28 -32 6 -46 27 -11 27 -12 3 -16 -35 -6 -71 6 -71
25 0 26 30 53 59 53 l25 0 -22 -16z"/>
<path d="M1205 1130 c0 -68 6 -87 19 -54 12 32 3 124 -13 124 -3 0 -6 -31 -6
-70z"/>
<path d="M1483 1160 c-48 -19 -10 -89 49 -90 19 0 33 9 48 31 21 29 21 31 5
50 -19 20 -64 24 -102 9z m82 -14 c13 -9 16 -19 11 -32 -7 -18 -9 -18 -23 4
-16 23 -47 30 -58 12 -10 -15 -25 -12 -19 4 3 8 18 17 32 19 15 2 30 5 33 6 3
0 14 -5 24 -13z"/>
<path d="M1685 1159 c-15 -7 -12 -8 13 -3 19 3 32 1 32 -5 0 -6 -6 -8 -14 -5
-8 3 -17 1 -21 -5 -7 -12 -52 -5 -72 12 -17 13 -16 -4 2 -27 8 -11 15 -32 15
-48 0 -15 5 -28 11 -28 7 0 9 15 4 43 l-6 42 26 -30 c13 -16 25 -37 25 -45 0
-14 54 -70 67 -70 10 0 -5 113 -15 119 -6 3 -12 17 -13 31 -4 27 -23 34 -54
19z"/>
<path d="M1251 2001 c-12 -8 -12 -12 -2 -25 19 -23 31 -20 31 9 0 27 -6 30
-29 16z"/>
<path d="M1126 1977 c-16 -12 -16 -14 -2 -26 19 -16 36 -6 36 20 0 22 -9 24
-34 6z"/>
<path d="M1197 1984 c-14 -14 -7 -35 11 -32 9 2 17 10 17 17 0 16 -18 25 -28
15z"/>
<path d="M1227 1943 c-30 -5 -46 -28 -30 -44 7 -7 22 -1 44 18 19 15 28 20 20
10 -12 -15 -11 -17 3 -17 9 0 16 8 16 20 0 11 -6 19 -12 19 -7 -1 -26 -4 -41
-6z"/>
<path d="M1110 1909 c0 -16 5 -20 27 -17 17 2 29 10 31 21 3 13 -3 17 -27 17
-25 0 -31 -4 -31 -21z"/>
<path d="M1467 1704 c-9 -10 4 -34 18 -34 20 0 30 21 14 31 -17 10 -24 11 -32
3z"/>
<path d="M1493 1653 c-21 -7 -15 -33 7 -33 11 0 20 6 20 14 0 18 -11 25 -27
19z"/>
<path d="M1486 1581 c-3 -4 1 -17 9 -27 10 -15 16 -16 26 -7 6 6 9 19 6 27 -7
17 -32 22 -41 7z"/>
<path d="M1540 1576 c0 -25 12 -46 25 -46 14 0 27 38 19 52 -9 14 -44 9 -44
-6z"/>
<path d="M529 1569 c-25 -25 -25 -83 0 -108 14 -14 33 -19 68 -19 61 1 93 27
93 75 0 49 -27 71 -90 71 -38 0 -57 -5 -71 -19z m61 -19 c0 -5 -7 -7 -15 -4
-8 4 -15 1 -15 -5 0 -6 6 -11 14 -11 21 0 29 -31 12 -48 -23 -23 -46 -7 -46
31 0 19 3 37 7 40 10 11 43 8 43 -3z m65 -35 c0 -34 -3 -40 -22 -43 -13 -2
-23 1 -23 7 0 6 7 11 16 11 13 0 12 4 -6 18 -27 22 -18 55 14 50 17 -2 21 -10
21 -43z"/>
<path d="M2310 1563 c-25 -32 -26 -64 -2 -94 28 -34 116 -36 148 -4 31 31 31
75 2 102 -17 16 -36 21 -75 22 -45 0 -55 -4 -73 -26z m70 -14 c0 -6 -7 -9 -15
-6 -8 4 -17 2 -20 -2 -2 -5 5 -11 16 -14 27 -7 23 -52 -5 -52 -26 0 -40 26
-32 58 5 20 13 27 31 27 14 0 25 -5 25 -11z m68 -25 c4 -36 -19 -60 -45 -48
-16 7 -15 8 5 11 12 3 22 9 22 14 0 5 -3 8 -7 8 -22 -4 -33 3 -33 19 0 25 10
33 35 30 14 -2 21 -12 23 -34z"/>
<path d="M940 796 c-23 -44 -24 -45 -5 -65 27 -31 59 -26 89 14 25 32 27 55 6
55 -5 0 -17 -13 -27 -30 -17 -29 -37 -38 -47 -21 -3 4 6 23 19 41 19 26 22 36
12 42 -19 12 -21 11 -47 -36z"/>
<path d="M1978 819 c-21 -12 -24 -55 -5 -62 7 -3 25 -3 40 0 15 3 27 1 27 -5
0 -6 -9 -12 -20 -14 -28 -4 -30 -22 -4 -26 25 -4 57 30 52 55 -3 14 -12 18
-41 16 -39 -3 -51 11 -17 20 11 3 20 10 20 16 0 14 -29 14 -52 0z"/>
<path d="M1920 780 c-11 -7 -11 -13 3 -34 25 -37 21 -40 -18 -16 -32 20 -55
20 -55 1 0 -5 12 -30 26 -55 19 -35 30 -44 38 -36 7 7 7 16 -2 31 -18 29 -10
33 26 12 23 -13 34 -15 42 -7 17 17 -40 116 -60 104z"/>
<path d="M1036 727 c-29 -52 -29 -52 16 -77 23 -14 35 8 13 24 -16 11 -16 15
4 47 24 40 25 45 8 52 -7 3 -24 -16 -41 -46z"/>
<path d="M1117 733 c-4 -3 1 -11 9 -18 15 -10 15 -14 -1 -44 -16 -32 -15 -61
3 -61 5 0 17 19 26 43 11 31 22 43 36 43 24 0 24 -2 5 -56 -18 -52 -18 -50 0
-50 9 0 19 10 24 22 7 20 8 19 14 -10 4 -20 12 -32 23 -32 12 0 15 6 11 21 -3
13 2 28 14 40 25 25 11 55 -30 64 -17 3 -48 15 -70 26 -43 20 -54 23 -64 12z"/>
<path d="M1800 719 c-13 -6 -26 -12 -28 -14 -3 -3 26 -93 34 -103 2 -2 18 1
38 8 24 7 33 16 29 25 -4 11 -10 12 -23 5 -13 -7 -21 -7 -25 0 -3 6 1 13 9 16
23 9 19 27 -4 21 -11 -3 -23 -1 -26 5 -3 5 3 12 15 15 12 3 21 12 21 19 0 16
-6 16 -40 3z"/>
<path d="M1680 670 c-11 -11 -20 -28 -20 -38 0 -29 29 -62 56 -62 22 0 64 31
64 48 -1 19 -18 31 -38 25 -25 -6 -30 -23 -6 -23 8 0 12 -4 9 -10 -9 -15 -42
-12 -49 5 -10 26 5 45 35 45 31 0 39 14 13 24 -27 10 -43 7 -64 -14z"/>
<path d="M1313 615 c-29 -49 -30 -55 -13 -55 10 0 21 4 25 10 7 11 34 2 53
-17 21 -21 34 -16 26 10 -4 12 -10 40 -13 62 -9 63 -38 59 -78 -10z"/>
<path d="M1584 662 c-8 -4 -10 -26 -7 -59 l6 -53 38 0 c29 0 39 4 39 16 0 12
-7 15 -25 12 -17 -4 -25 -1 -25 8 0 8 9 14 20 14 11 0 20 5 20 10 0 6 -11 10
-25 10 -31 0 -33 17 -3 22 33 5 35 28 1 28 -15 0 -33 -4 -39 -8z"/>
<path d="M1454 644 c3 -9 6 -36 6 -60 0 -41 2 -44 28 -44 65 0 99 70 50 104
-31 22 -92 22 -84 0z m71 -44 c0 -16 -6 -26 -17 -28 -14 -3 -18 3 -18 28 0 25
4 31 18 28 11 -2 17 -12 17 -28z"/>
</g>
</svg>
